<svg viewBox="0 0 24 24" fill="currentColor" xmlns="http://www.w3.org/2000/svg">
              <path d="M12 0C5.372 0 0 5.372 0 12s5.372 12 12 12 12-5.372 12-12S18.628 0 12 0zm0 2.4a9.6 9.6 0 0 1 6.6 2.634A9.552 9.552 0 0 1 12 7.2a9.552 9.552 0 0 1-6.6-2.166A9.6 9.6 0 0 1 12 2.4zM2.4 12a9.56 9.56 0 0 1 2.634-6.6A9.552 9.552 0 0 1 7.2 12a9.552 9.552 0 0 1-2.166 6.6A9.56 9.56 0 0 1 2.4 12zm9.6 9.6a9.6 9.6 0 0 1-6.6-2.634A9.552 9.552 0 0 1 12 16.8a9.552 9.552 0 0 1 6.6 2.166A9.6 9.6 0 0 1 12 21.6zm9.6-9.6a9.56 9.56 0 0 1-2.634 6.6A9.552 9.552 0 0 1 16.8 12a9.552 9.552 0 0 1 2.166-6.6A9.56 9.56 0 0 1 21.6 12z"/>
            </svg>
